<svg width="568" height="496" viewBox="0 0 568 496" fill="none" xmlns="http://www.w3.org/2000/svg">
<path d="M373.631 262.517V262.541C373.631 262.541 373.583 262.553 373.558 262.565C373.57 262.541 373.583 262.529 373.607 262.529C373.619 262.529 373.631 262.517 373.631 262.517Z" stroke="#233534" stroke-width="30.52" stroke-linejoin="round"/>
<path d="M373.654 262.541H373.63L373.642 262.529C373.642 262.529 373.654 262.529 373.654 262.541Z" stroke="#233534" stroke-width="30.52" stroke-linejoin="round"/>
<path d="M551.237 315.323C546.933 321.989 542.406 328.505 537.676 334.853C533.691 340.233 529.543 345.492 525.239 350.626C519.883 357.058 514.293 363.309 508.486 369.35C467.714 411.848 416.584 444.349 359.167 462.803L359.155 462.791C358.212 463.097 357.262 463.404 356.306 463.699C354.401 464.3 352.489 464.871 350.572 465.436C349.616 465.718 348.654 466.001 347.698 466.265C346.791 466.524 345.889 466.776 344.981 467.035C343.954 467.317 342.926 467.6 341.898 467.864C340.93 468.123 339.968 468.375 338.989 468.622C338.009 468.88 337.029 469.12 336.067 469.367C333.843 469.92 331.601 470.455 329.353 470.972C327.664 471.351 325.975 471.729 324.292 472.084C322.591 472.451 320.901 472.793 319.206 473.136C317.505 473.466 315.792 473.797 314.085 474.104C312.384 474.422 310.671 474.717 308.952 475.011C307.473 475.258 305.994 475.498 304.515 475.72C302.544 476.027 300.566 476.322 298.583 476.598C297.849 476.694 297.116 476.796 296.383 476.893C295.649 476.989 294.904 477.091 294.171 477.175C293.648 477.247 293.119 477.307 292.584 477.374C291.105 477.56 289.626 477.728 288.13 477.884C286.525 478.053 284.914 478.215 283.309 478.371C281.692 478.528 280.081 478.666 278.464 478.798C276.847 478.918 275.236 479.045 273.607 479.153C271.978 479.261 270.355 479.363 268.726 479.447C267.097 479.531 265.474 479.604 263.833 479.682C258.928 479.88 253.999 479.976 249.046 479.976C240.108 479.976 231.254 479.646 222.484 479.009C221.221 478.912 219.977 478.822 218.727 478.714C215.391 478.431 212.072 478.113 208.76 477.746C207.234 477.578 205.713 477.392 204.198 477.205C202.683 477.007 201.163 476.815 199.648 476.604V476.616C190.319 475.33 181.098 473.695 172.009 471.699C168.841 471.014 165.698 470.281 162.566 469.511C107.656 455.962 57.7163 429.779 16 394.23H16.0361C50.8517 411.878 90.2297 421.82 131.934 421.82C155.377 421.82 178.074 418.676 199.648 412.797C202.082 412.136 204.517 411.427 206.927 410.694C207.588 410.495 208.262 410.291 208.923 410.08C209.927 409.762 210.918 409.443 211.904 409.113C213.088 408.734 214.267 408.343 215.439 407.941C216.737 407.502 218.029 407.033 219.316 406.57C220.614 406.107 221.894 405.626 223.169 405.151C224.443 404.665 225.711 404.172 226.974 403.661C229.114 402.807 231.242 401.924 233.357 401.022C234.007 400.739 234.656 400.457 235.299 400.18C236.02 399.862 236.742 399.543 237.463 399.213C241.779 397.253 246.035 395.203 250.218 393.015C251.102 392.564 251.979 392.108 252.845 391.633C255.207 390.382 257.54 389.078 259.854 387.744C258.327 388.621 256.806 389.517 255.304 390.413C254.336 390.99 253.386 391.561 252.43 392.162C256.476 389.703 260.587 387.317 264.735 385.033V385.021C278.067 377.633 291.898 371.069 306.193 365.395H306.205C310.647 363.634 315.095 361.969 319.621 360.382C351.395 349.219 385.219 342.403 420.377 340.629H420.389C426.478 340.323 432.604 340.167 438.771 340.167C441.752 340.167 444.728 340.203 447.697 340.275C447.733 340.287 447.781 340.287 447.818 340.287C450.444 340.431 453.101 340.533 455.752 340.569H455.908C456.702 340.581 457.483 340.581 458.283 340.581C474.043 340.581 489.347 338.586 503.936 334.859H506.112C506.419 334.588 506.725 334.306 507.032 334.029C522.708 329.726 537.544 323.39 551.243 315.329L551.237 315.323Z" stroke="#233534" stroke-width="30.52" stroke-linejoin="round"/>
<path d="M347.674 218.144C385.261 195.037 407.592 151.77 402.723 106.219C386.824 115.139 373.455 127.582 363.417 142.291V142.303C349.387 162.861 341.897 187.86 343.208 213.9C343.31 216.064 343.472 218.234 343.713 220.41C343.713 220.41 343.725 220.422 343.725 220.434H343.737C345.017 219.652 346.303 218.901 347.596 218.192C346.328 218.955 345.053 219.706 343.761 220.434C343.761 220.434 343.761 220.446 343.749 220.446C343.749 220.446 343.753 220.45 343.761 220.458C378.474 245.265 424.765 249.401 463.674 230.039C466.638 228.567 469.559 226.962 472.426 225.225C436.264 199.365 387.539 195.951 347.68 218.15L347.674 218.144Z" stroke="#233534" stroke-width="30.52" stroke-linejoin="round"/>
<path d="M521.458 319.206C518.976 319.405 516.469 319.561 513.951 319.657C511.576 319.741 509.196 319.789 506.798 319.789C496.357 319.789 486.108 318.924 476.142 317.223C475.619 317.151 475.09 317.066 474.579 316.964C465.31 315.323 456.311 312.991 447.577 310.016C440.178 307.485 432.977 304.497 426.028 301.077C423.287 299.743 420.588 298.324 417.931 296.846C403.367 288.773 390.022 278.782 378.247 267.199C377.123 266.099 376.011 264.975 374.923 263.839C374.496 263.412 374.081 262.974 373.66 262.529H373.636C373.636 262.529 373.588 262.541 373.564 262.553C373.576 262.529 373.588 262.517 373.612 262.517V262.493H373.6V262.469C372.656 261.477 371.731 260.473 370.811 259.463C360.196 247.736 351.071 234.638 343.762 220.452C342.968 218.949 342.211 217.416 341.477 215.889C341.477 215.889 341.477 215.877 341.465 215.877V215.853L341.453 215.841C341.453 215.841 341.429 215.781 341.405 215.757C329.846 191.737 323.366 164.796 323.366 136.352C323.366 114.598 327.159 93.7341 334.102 74.3727C334.102 74.3727 334.102 74.3687 334.102 74.3607C339.079 60.5054 345.673 47.4194 353.656 35.3374C353.89 34.9947 354.118 34.6521 354.353 34.3095C358.633 27.9018 363.315 21.8006 368.365 16H367.583C359.438 16.6853 351.444 17.8935 343.641 19.5946C340.498 20.2918 337.39 21.0612 334.312 21.9208C331 22.8285 327.73 23.8263 324.502 24.9143C323.511 25.2449 322.519 25.5875 321.545 25.9422C320.896 26.1766 320.247 26.405 319.615 26.6515C319.369 26.7236 319.129 26.8198 318.882 26.922C318.233 27.1564 317.596 27.3968 316.953 27.6553C316.784 27.7154 316.61 27.7755 316.442 27.8537C316.051 27.9979 315.648 28.1602 315.257 28.3285C315.137 28.3646 315.011 28.4127 314.891 28.4728C314.35 28.6832 313.803 28.8996 313.25 29.134C312.102 29.5969 310.966 30.0898 309.823 30.5887C309.361 30.787 308.892 30.9914 308.441 31.2018C307.99 31.3881 307.533 31.5925 307.082 31.8149C306.067 32.2657 305.051 32.7466 304.047 33.2215C303.849 33.3177 303.656 33.4078 303.458 33.504C303.272 33.5882 303.103 33.6723 302.935 33.7625C302.827 33.8226 302.712 33.8707 302.604 33.9188C301.859 34.2854 301.114 34.6521 300.38 35.0308C299.917 35.2652 299.461 35.4936 298.998 35.7401C298.421 36.0346 297.85 36.3412 297.273 36.6477C296.858 36.8581 296.455 37.0745 296.052 37.309C294.988 37.886 293.924 38.4691 292.872 39.0702C292.307 39.3888 291.76 39.6953 291.207 40.0139C289.861 40.7833 288.527 41.5768 287.21 42.4003C286.916 42.5686 286.609 42.7669 286.315 42.9533C286.032 43.1216 285.749 43.2959 285.473 43.4762C285.227 43.6325 284.986 43.7828 284.74 43.9391C282.81 45.1593 280.899 46.4336 279.005 47.744C278.638 48.0025 278.272 48.2429 277.917 48.5014C277.575 48.7358 277.232 48.9763 276.889 49.2227C276.048 49.8238 275.212 50.431 274.383 51.0441C273.439 51.7293 272.501 52.4386 271.57 53.1599C271.119 53.5026 270.662 53.8572 270.211 54.2119C269.76 54.5665 269.303 54.9212 268.853 55.2758C268.654 55.4321 268.462 55.5944 268.251 55.7627C267.614 56.2616 266.977 56.7906 266.334 57.3135L266.286 57.3616C266.226 57.3977 266.166 57.4458 266.1 57.5059C265.192 58.2513 264.29 59.0207 263.383 59.7901C261.609 61.3168 259.86 62.8857 258.147 64.4846C257.979 64.6409 257.804 64.8032 257.624 64.9715C256.831 65.7169 256.049 66.4743 255.262 67.2317C255.154 67.3278 255.039 67.43 254.943 67.5382C254.318 68.1393 253.711 68.7464 253.11 69.3596C252.707 69.7503 252.316 70.141 251.938 70.5437C251.619 70.8623 251.3 71.1929 250.982 71.5235C249.87 72.6716 248.782 73.8377 247.706 75.0219C247.093 75.6831 246.498 76.3564 245.897 77.0296C245.127 77.8831 244.37 78.7668 243.612 79.6323C242.843 80.54 242.086 81.4537 241.328 82.3734C241.022 82.74 240.715 83.1187 240.409 83.4974C240.15 83.816 239.898 84.1346 239.639 84.4652C239.507 84.6215 239.381 84.7838 239.26 84.94C238.623 85.7335 237.998 86.527 237.391 87.3384C237.193 87.5969 237 87.8494 236.814 88.0958C236.694 88.2401 236.58 88.4024 236.471 88.5466C236.141 88.9734 235.822 89.4002 235.516 89.833C235.395 89.9773 235.281 90.1395 235.173 90.2958C234.975 90.5543 234.782 90.8188 234.596 91.0773C234.584 91.0893 234.572 91.1013 234.572 91.1133C234.301 91.468 234.049 91.8346 233.802 92.1893C233.604 92.4478 233.424 92.7123 233.237 92.9707C232.955 93.3494 232.684 93.7401 232.42 94.1308C232.017 94.7079 231.627 95.2669 231.248 95.844C230.941 96.2828 230.635 96.7396 230.34 97.1904C229.841 97.9238 229.36 98.6691 228.886 99.4025C228.248 100.394 227.611 101.386 227.004 102.384C226.379 103.388 225.772 104.392 225.171 105.407C224.57 106.423 223.987 107.439 223.397 108.467C222.82 109.495 222.249 110.523 221.684 111.563C221.161 112.543 220.632 113.534 220.121 114.52C220.061 114.628 220.013 114.731 219.965 114.839C219.767 115.205 219.574 115.572 219.4 115.939C219.304 116.125 219.202 116.305 219.118 116.492C219.009 116.702 218.907 116.906 218.811 117.117C218.601 117.508 218.408 117.898 218.222 118.301C217.855 119.034 217.501 119.768 217.158 120.513C217.002 120.844 216.839 121.174 216.695 121.505C216.377 122.166 216.07 122.839 215.776 123.513C215.739 123.573 215.703 123.645 215.679 123.711C215.559 123.969 215.445 124.222 215.337 124.48C215.265 124.625 215.204 124.775 215.138 124.919C213.852 127.816 212.656 130.75 211.532 133.725C210.967 135.192 210.432 136.671 209.915 138.167C209.584 139.099 209.266 140.025 208.959 140.968C208.665 141.864 208.37 142.754 208.106 143.649C208.081 143.661 208.081 143.673 208.081 143.697C207.997 143.932 207.937 144.148 207.859 144.395C207.787 144.617 207.715 144.858 207.649 145.092C207.528 145.471 207.402 145.861 207.306 146.24C207.246 146.396 207.198 146.571 207.15 146.739C207.138 146.763 207.126 146.799 207.126 146.835C207.09 146.919 207.066 147.004 207.042 147.106C206.921 147.52 206.795 147.935 206.675 148.368C206.428 149.21 206.188 150.081 205.966 150.935C205.893 151.181 205.833 151.422 205.767 151.668C205.425 152.918 205.106 154.175 204.811 155.437C204.565 156.417 204.349 157.378 204.126 158.358C203.982 158.995 203.844 159.645 203.711 160.276C203.651 160.534 203.591 160.787 203.543 161.045C203.495 161.256 203.459 161.46 203.423 161.658C203.363 161.941 203.303 162.211 203.255 162.488C203.243 162.548 203.231 162.596 203.219 162.656C203.122 163.167 203.008 163.684 202.912 164.207C202.888 164.363 202.852 164.538 202.828 164.706C202.744 165.133 202.66 165.571 202.581 166.028C202.545 166.239 202.509 166.443 202.473 166.665C202.461 166.69 202.461 166.714 202.449 166.738C202.449 166.774 202.449 166.798 202.437 166.834C202.215 168.03 202.022 169.244 201.836 170.452V170.525L201.8 170.711C201.776 170.843 201.752 170.981 201.74 171.114V171.162C201.704 171.306 201.68 171.456 201.668 171.6C201.656 171.613 201.656 171.625 201.656 171.649C201.608 172.003 201.548 172.37 201.499 172.737C201.475 172.905 201.451 173.079 201.427 173.26C201.319 174.017 201.217 174.786 201.133 175.556C201.097 175.712 201.085 175.874 201.073 176.043C201.049 176.151 201.037 176.265 201.025 176.385C201.013 176.421 201.013 176.469 201.013 176.517C200.976 176.776 200.94 177.04 200.916 177.311C200.832 178.032 200.748 178.754 200.67 179.475V179.523C200.646 179.691 200.634 179.878 200.61 180.064C200.586 180.274 200.562 180.491 200.55 180.713C200.49 181.278 200.442 181.849 200.393 182.426L200.357 182.865C200.309 183.442 200.261 184.013 200.213 184.59C200.129 185.69 200.057 186.802 199.991 187.914C199.967 188.305 199.943 188.696 199.931 189.098C199.919 189.285 199.907 189.465 199.907 189.664C199.895 189.808 199.882 189.97 199.882 190.114C199.87 190.174 199.87 190.235 199.87 190.301C199.846 190.8 199.822 191.305 199.81 191.791C199.786 192.489 199.762 193.186 199.75 193.883C199.738 194.13 199.726 194.358 199.726 194.605C199.714 194.773 199.714 194.935 199.714 195.103C199.702 195.482 199.702 195.861 199.702 196.24C199.678 197.069 199.678 197.917 199.678 198.758V210.756C199.678 219.111 199.113 227.34 198.025 235.395C196.793 244.652 194.857 253.693 192.279 262.457C190.704 267.824 188.888 273.096 186.851 278.259C186.081 280.189 185.288 282.125 184.452 284.018C180.515 293.083 175.857 301.75 170.549 309.979C164.995 318.599 158.749 326.72 151.861 334.252C151.692 334.438 151.53 334.619 151.362 334.805C150.454 335.785 149.54 336.764 148.621 337.726C148.098 338.279 147.557 338.826 147.004 339.379C145.645 340.774 144.239 342.156 142.82 343.515C132.866 353.018 121.836 361.404 109.934 368.496C109.423 368.803 108.894 369.11 108.371 369.404C104.656 371.568 100.851 373.612 96.9743 375.505C87.5972 380.116 77.7632 383.945 67.5626 386.902C51.2728 391.645 34.0573 394.193 16.2347 394.193H16.0664C50.8821 411.842 90.2601 421.784 131.964 421.784C133.395 421.784 134.814 421.772 136.244 421.748C136.388 421.748 136.539 421.748 136.683 421.736C137.639 421.724 138.6 421.7 139.568 421.664C139.737 421.664 139.923 421.664 140.091 421.652C140.374 421.652 140.644 421.64 140.909 421.628C141.179 421.628 141.45 421.604 141.726 421.592C141.882 421.592 142.057 421.592 142.213 421.58C142.886 421.556 143.56 421.531 144.233 421.495C144.906 421.459 145.591 421.435 146.264 421.387C146.511 421.375 146.763 421.363 147.01 421.351C147.316 421.339 147.635 421.315 147.942 421.291C148.735 421.243 149.528 421.195 150.328 421.135C151.205 421.075 152.089 421.015 152.979 420.936C153.856 420.864 154.74 420.792 155.606 420.702C157.367 420.558 159.128 420.371 160.865 420.179C161.076 420.155 161.28 420.131 161.49 420.107C162.079 420.047 162.674 419.975 163.264 419.896C163.36 419.884 163.45 419.872 163.546 419.86C164.466 419.752 165.391 419.626 166.311 419.506C166.407 419.494 166.497 419.482 166.594 419.47C167.892 419.301 169.196 419.115 170.495 418.917C170.813 418.869 171.12 418.82 171.438 418.772C172.575 418.604 173.723 418.418 174.865 418.219C174.925 418.207 174.997 418.195 175.075 418.183C176.434 417.949 177.792 417.72 179.133 417.462C180.527 417.204 181.91 416.939 183.292 416.657C184.488 416.422 185.679 416.17 186.863 415.911C187.241 415.827 187.632 415.743 188.023 415.653C189.063 415.418 190.103 415.19 191.13 414.943C192.086 414.709 193.024 414.493 193.968 414.246C194.785 414.048 195.609 413.843 196.426 413.633C197.514 413.35 198.602 413.056 199.678 412.767C202.113 412.106 204.547 411.397 206.957 410.664C207.619 410.465 208.292 410.261 208.953 410.05C209.957 409.732 210.949 409.413 211.935 409.083C213.119 408.704 214.297 408.313 215.469 407.911C216.767 407.472 218.06 407.003 219.346 406.54C220.644 406.077 221.925 405.596 223.199 405.121C224.473 404.635 225.742 404.13 227.004 403.631C229.144 402.777 231.272 401.894 233.388 400.992C234.037 400.709 234.686 400.427 235.329 400.15C236.051 399.832 236.772 399.513 237.493 399.183C238.437 398.756 239.387 398.317 240.33 397.872C241.382 397.385 242.434 396.88 243.486 396.381C245.758 395.281 248.012 394.157 250.249 392.979C251.126 392.528 252.01 392.072 252.875 391.597C255.238 390.334 257.57 389.042 259.884 387.708C259.908 387.696 259.944 387.672 259.968 387.66C260.016 387.635 260.052 387.611 260.101 387.587C260.894 387.137 261.687 386.668 262.475 386.193C263.292 385.718 264.104 385.225 264.921 384.738C264.885 384.798 264.837 384.858 264.801 384.937C278.103 377.549 291.923 371.009 306.199 365.347H306.223V365.359H306.235C310.677 363.598 315.125 361.932 319.651 360.346C351.426 349.183 385.249 342.367 420.408 340.593H420.42C426.509 340.287 432.634 340.131 438.801 340.131C439.973 340.131 441.152 340.131 442.324 340.155C442.811 340.155 443.316 340.167 443.79 340.167H444.109C444.295 340.167 444.488 340.179 444.674 340.179C445.702 340.191 446.718 340.203 447.734 340.239C447.77 340.251 447.818 340.251 447.854 340.251C450.505 340.299 453.15 340.395 455.788 340.533H455.945C456.738 340.545 457.52 340.545 458.319 340.545C459.299 340.545 460.291 340.533 461.264 340.521C462.893 340.497 464.504 340.449 466.133 340.377C466.686 340.365 467.221 340.341 467.774 340.305C468.201 340.293 468.64 340.269 469.073 340.233C469.674 340.209 470.269 340.173 470.87 340.125C471.687 340.077 472.523 340.016 473.34 339.938C474.182 339.878 475.018 339.806 475.847 339.716C476.496 339.656 477.145 339.596 477.789 339.518C478.191 339.481 478.594 339.433 478.997 339.385C479.862 339.289 480.722 339.187 481.576 339.079C482.676 338.946 483.764 338.796 484.852 338.64C485.561 338.532 486.27 338.43 486.967 338.321C487.064 338.309 487.166 338.297 487.262 338.273C488.182 338.129 489.095 337.979 490.003 337.822C491.764 337.516 493.501 337.185 495.239 336.831C495.96 336.686 496.669 336.536 497.378 336.38H497.39C497.463 336.368 497.547 336.344 497.625 336.332C497.661 336.32 497.709 336.32 497.745 336.308C498.773 336.073 499.789 335.845 500.805 335.61C501.869 335.352 502.921 335.099 503.972 334.829C505.012 334.558 506.04 334.288 507.068 333.999C522.745 329.696 537.58 323.36 551.279 315.299C551.525 314.921 551.766 314.554 552 314.187V314.175C542.13 316.67 531.942 318.371 521.501 319.188L521.458 319.206Z" stroke="#233534" stroke-width="30.52" stroke-linejoin="round"/>
<path d="M374.916 263.845C355.922 267.247 337.444 272.146 319.615 278.41C315.089 279.997 310.641 281.662 306.199 283.423H306.187C291.893 289.097 278.061 295.661 264.729 303.049V303.061C260.581 305.345 256.476 307.731 252.424 310.19C253.38 309.589 254.33 309.018 255.298 308.441C256.8 307.545 258.321 306.655 259.848 305.772C257.534 307.106 255.202 308.411 252.839 309.661C251.974 310.136 251.09 310.593 250.212 311.043C246.029 313.231 241.773 315.287 237.457 317.241C236.736 317.571 236.014 317.89 235.293 318.208C234.644 318.491 233.995 318.774 233.352 319.05C231.236 319.958 229.108 320.835 226.968 321.689C225.706 322.2 224.437 322.693 223.163 323.18C221.889 323.654 220.608 324.135 219.31 324.598C218.024 325.061 216.731 325.53 215.433 325.969C214.261 326.371 213.082 326.762 211.898 327.141C210.907 327.471 209.915 327.79 208.917 328.109C208.256 328.319 207.582 328.523 206.921 328.722C204.511 329.455 202.076 330.164 199.642 330.826C188.401 333.897 176.86 336.205 165.061 337.72C159.092 338.502 153.063 339.067 146.974 339.409C147.527 338.856 148.062 338.309 148.591 337.756C149.51 336.788 150.424 335.815 151.332 334.835C151.5 334.649 151.662 334.468 151.831 334.282C158.713 326.75 164.965 318.629 170.519 310.009C175.826 301.78 180.485 293.107 184.422 284.048C189.555 282.984 194.635 281.776 199.648 280.405C202.082 279.744 204.517 279.035 206.927 278.302C207.588 278.103 208.262 277.899 208.923 277.688C209.927 277.37 210.919 277.051 211.904 276.721C213.089 276.342 214.267 275.951 215.439 275.549C216.737 275.11 218.03 274.641 219.316 274.178C220.614 273.715 221.895 273.234 223.169 272.759C224.443 272.273 225.712 271.78 226.974 271.269C229.114 270.415 231.242 269.532 233.358 268.63C234.007 268.347 234.656 268.065 235.299 267.788C236.02 267.47 236.742 267.151 237.463 266.821C241.779 264.861 246.035 262.811 250.218 260.623C251.096 260.172 251.98 259.716 252.845 259.241C255.208 257.99 257.54 256.686 259.854 255.352C258.327 256.229 256.806 257.125 255.304 258.02C254.336 258.597 253.386 259.169 252.43 259.77C256.476 257.311 260.587 254.925 264.735 252.641V252.629C278.067 245.241 291.899 238.677 306.193 233.003H306.205C310.647 231.241 315.095 229.576 319.621 227.99C327.544 225.2 335.592 222.694 343.761 220.458C351.077 234.644 360.195 247.742 370.811 259.469C371.731 260.485 372.656 261.489 373.6 262.475V262.499H373.612V262.523C373.612 262.523 373.576 262.535 373.564 262.559C373.588 262.547 373.612 262.535 373.636 262.535H373.66C374.075 262.974 374.49 263.412 374.922 263.845H374.916Z" stroke="#233534" stroke-width="30.52" stroke-linejoin="round"/>
<path d="M373.631 262.517V262.541C373.631 262.541 373.583 262.553 373.558 262.565C373.57 262.541 373.583 262.529 373.607 262.529C373.619 262.529 373.631 262.517 373.631 262.517Z" fill="#92C445"/>
<path d="M373.654 262.541H373.63L373.642 262.529C373.642 262.529 373.654 262.529 373.654 262.541Z" fill="#92C445"/>
<path d="M551.237 315.323C546.933 321.989 542.406 328.505 537.676 334.853C533.69 340.233 529.543 345.492 525.239 350.626C519.883 357.058 514.293 363.309 508.486 369.35C467.714 411.848 416.584 444.349 359.167 462.803L359.155 462.791C358.212 463.097 357.262 463.404 356.306 463.699C354.401 464.3 352.489 464.871 350.572 465.436C349.616 465.718 348.654 466.001 347.698 466.265C346.791 466.524 345.889 466.776 344.981 467.035C343.954 467.317 342.926 467.6 341.898 467.864C340.93 468.123 339.968 468.375 338.989 468.622C338.009 468.88 337.029 469.12 336.067 469.367C333.843 469.92 331.601 470.455 329.353 470.972C327.664 471.351 325.975 471.729 324.292 472.084C322.591 472.451 320.901 472.793 319.206 473.136C317.505 473.466 315.792 473.797 314.085 474.104C312.384 474.422 310.671 474.717 308.952 475.011C307.473 475.258 305.994 475.498 304.516 475.72C302.544 476.027 300.566 476.322 298.583 476.598C297.849 476.694 297.116 476.796 296.383 476.893C295.649 476.989 294.904 477.091 294.171 477.175C293.648 477.247 293.119 477.307 292.584 477.374C291.105 477.56 289.626 477.728 288.13 477.884C286.525 478.053 284.914 478.215 283.309 478.371C281.692 478.528 280.081 478.666 278.464 478.798C276.847 478.918 275.236 479.045 273.607 479.153C271.978 479.261 270.355 479.363 268.726 479.447C267.097 479.531 265.474 479.604 263.833 479.682C258.928 479.88 253.999 479.976 249.046 479.976C240.108 479.976 231.254 479.646 222.484 479.009C221.221 478.912 219.977 478.822 218.727 478.714C215.391 478.431 212.072 478.113 208.76 477.746C207.234 477.578 205.713 477.392 204.198 477.205C202.683 477.007 201.163 476.814 199.648 476.604V476.616C190.319 475.33 181.098 473.695 172.009 471.699C168.841 471.014 165.698 470.281 162.566 469.511C107.656 455.962 57.7163 429.779 16 394.23H16.0361C50.8517 411.878 90.2297 421.82 131.934 421.82C155.377 421.82 178.074 418.676 199.648 412.797C202.082 412.136 204.517 411.427 206.927 410.694C207.588 410.495 208.262 410.291 208.923 410.08C209.927 409.762 210.918 409.443 211.904 409.113C213.088 408.734 214.267 408.343 215.439 407.941C216.737 407.502 218.029 407.033 219.316 406.57C220.614 406.107 221.894 405.626 223.169 405.151C224.443 404.665 225.711 404.172 226.974 403.661C229.114 402.807 231.242 401.924 233.357 401.022C234.007 400.739 234.656 400.457 235.299 400.18C236.02 399.862 236.742 399.543 237.463 399.213C241.779 397.253 246.035 395.203 250.218 393.015C251.102 392.564 251.979 392.108 252.845 391.633C255.207 390.382 257.54 389.078 259.854 387.744C258.327 388.621 256.806 389.517 255.304 390.413C254.336 390.99 253.386 391.561 252.43 392.162C256.476 389.703 260.587 387.317 264.735 385.033V385.021C278.067 377.633 291.898 371.069 306.193 365.395H306.205C310.647 363.634 315.095 361.969 319.621 360.382C351.395 349.219 385.219 342.403 420.377 340.629H420.389C426.478 340.323 432.604 340.167 438.771 340.167C441.752 340.167 444.728 340.203 447.697 340.275C447.733 340.287 447.781 340.287 447.818 340.287C450.444 340.431 453.101 340.533 455.752 340.569H455.908C456.702 340.581 457.483 340.581 458.283 340.581C474.043 340.581 489.347 338.586 503.936 334.859H506.112C506.419 334.588 506.725 334.306 507.032 334.029C522.708 329.726 537.544 323.39 551.243 315.329L551.237 315.323Z" fill="url(#paint0_linear_862_4315)"/>
<path d="M347.674 218.144C385.261 195.037 407.592 151.77 402.723 106.219C386.824 115.139 373.455 127.582 363.417 142.291V142.303C349.387 162.861 341.897 187.86 343.208 213.9C343.31 216.064 343.472 218.234 343.713 220.41C343.713 220.41 343.725 220.422 343.725 220.434H343.737C345.017 219.652 346.303 218.901 347.596 218.192C346.328 218.955 345.053 219.706 343.761 220.434C343.761 220.434 343.761 220.446 343.749 220.446C343.749 220.446 343.753 220.45 343.761 220.458C378.474 245.265 424.765 249.401 463.674 230.039C466.638 228.567 469.559 226.962 472.426 225.225C436.264 199.365 387.539 195.951 347.68 218.15L347.674 218.144Z" fill="url(#paint1_linear_862_4315)"/>
<path d="M521.458 319.206C518.976 319.405 516.469 319.561 513.951 319.657C511.576 319.741 509.196 319.789 506.798 319.789C496.357 319.789 486.108 318.924 476.142 317.223C475.619 317.151 475.09 317.066 474.579 316.964C465.31 315.323 456.311 312.991 447.577 310.016C440.178 307.485 432.977 304.497 426.028 301.077C423.287 299.743 420.588 298.324 417.931 296.845C403.367 288.773 390.022 278.782 378.247 267.199C377.123 266.099 376.01 264.975 374.923 263.839C374.496 263.412 374.081 262.974 373.66 262.529H373.636C373.636 262.529 373.588 262.541 373.564 262.553C373.576 262.529 373.588 262.517 373.612 262.517V262.493H373.6V262.469C372.656 261.477 371.731 260.473 370.811 259.463C360.196 247.736 351.071 234.638 343.762 220.452C342.968 218.949 342.211 217.416 341.477 215.889C341.477 215.889 341.477 215.877 341.465 215.877V215.853L341.453 215.841C341.453 215.841 341.429 215.781 341.405 215.757C329.846 191.737 323.366 164.796 323.366 136.352C323.366 114.598 327.159 93.7341 334.102 74.3727C334.102 74.3727 334.102 74.3687 334.102 74.3607C339.079 60.5054 345.673 47.4194 353.656 35.3374C353.89 34.9947 354.118 34.6521 354.353 34.3095C358.633 27.9018 363.315 21.8006 368.365 16H367.583C359.438 16.6853 351.444 17.8935 343.641 19.5946C340.498 20.2918 337.39 21.0612 334.312 21.9208C331 22.8285 327.73 23.8263 324.502 24.9143C323.511 25.2449 322.519 25.5875 321.545 25.9422C320.896 26.1766 320.247 26.405 319.615 26.6515C319.369 26.7236 319.129 26.8198 318.882 26.922C318.233 27.1564 317.596 27.3968 316.953 27.6553C316.784 27.7154 316.61 27.7755 316.442 27.8537C316.051 27.9979 315.648 28.1602 315.257 28.3285C315.137 28.3646 315.011 28.4127 314.891 28.4728C314.35 28.6832 313.803 28.8996 313.25 29.134C312.102 29.5969 310.966 30.0898 309.823 30.5887C309.361 30.787 308.892 30.9914 308.441 31.2018C307.99 31.3881 307.533 31.5925 307.082 31.8149C306.067 32.2657 305.051 32.7466 304.047 33.2215C303.849 33.3177 303.656 33.4078 303.458 33.504C303.272 33.5882 303.103 33.6723 302.935 33.7625C302.827 33.8226 302.712 33.8707 302.604 33.9188C301.859 34.2854 301.114 34.6521 300.38 35.0308C299.917 35.2652 299.461 35.4936 298.998 35.7401C298.421 36.0346 297.85 36.3412 297.273 36.6477C296.858 36.8581 296.455 37.0745 296.052 37.309C294.988 37.886 293.924 38.4691 292.872 39.0702C292.307 39.3888 291.76 39.6953 291.207 40.0139C289.861 40.7833 288.527 41.5768 287.21 42.4003C286.916 42.5686 286.609 42.7669 286.315 42.9533C286.032 43.1216 285.749 43.2959 285.473 43.4762C285.227 43.6325 284.986 43.7828 284.74 43.9391C282.81 45.1593 280.899 46.4336 279.005 47.744C278.638 48.0025 278.272 48.2429 277.917 48.5014C277.575 48.7358 277.232 48.9763 276.889 49.2227C276.048 49.8238 275.212 50.431 274.383 51.0441C273.439 51.7293 272.501 52.4386 271.57 53.1599C271.119 53.5026 270.662 53.8572 270.211 54.2119C269.76 54.5665 269.303 54.9212 268.853 55.2758C268.654 55.4321 268.462 55.5944 268.251 55.7627C267.614 56.2616 266.977 56.7906 266.334 57.3135L266.286 57.3616C266.226 57.3977 266.166 57.4458 266.1 57.5059C265.192 58.2513 264.29 59.0207 263.383 59.7901C261.609 61.3168 259.86 62.8857 258.147 64.4846C257.979 64.6409 257.804 64.8032 257.624 64.9715C256.831 65.7169 256.049 66.4743 255.262 67.2317C255.154 67.3278 255.039 67.43 254.943 67.5382C254.318 68.1393 253.711 68.7464 253.11 69.3596C252.707 69.7503 252.316 70.141 251.938 70.5437C251.619 70.8623 251.3 71.1929 250.982 71.5235C249.87 72.6716 248.782 73.8377 247.706 75.0219C247.093 75.6831 246.498 76.3563 245.897 77.0296C245.127 77.8831 244.37 78.7668 243.612 79.6323C242.843 80.54 242.086 81.4537 241.328 82.3734C241.022 82.74 240.715 83.1187 240.409 83.4974C240.15 83.816 239.898 84.1346 239.639 84.4652C239.507 84.6215 239.381 84.7838 239.26 84.94C238.623 85.7335 237.998 86.527 237.391 87.3384C237.193 87.5969 237 87.8494 236.814 88.0958C236.694 88.2401 236.58 88.4024 236.471 88.5466C236.141 88.9734 235.822 89.4002 235.516 89.833C235.395 89.9773 235.281 90.1395 235.173 90.2958C234.975 90.5543 234.782 90.8188 234.596 91.0773C234.584 91.0893 234.572 91.1013 234.572 91.1133C234.301 91.468 234.049 91.8346 233.802 92.1893C233.604 92.4478 233.424 92.7123 233.237 92.9707C232.955 93.3494 232.684 93.7401 232.42 94.1308C232.017 94.7079 231.627 95.2669 231.248 95.844C230.941 96.2828 230.635 96.7396 230.34 97.1904C229.841 97.9238 229.36 98.6691 228.885 99.4025C228.248 100.394 227.611 101.386 227.004 102.384C226.379 103.388 225.772 104.392 225.171 105.407C224.57 106.423 223.987 107.439 223.397 108.467C222.82 109.495 222.249 110.523 221.684 111.563C221.161 112.543 220.632 113.534 220.121 114.52C220.061 114.628 220.013 114.731 219.965 114.839C219.767 115.205 219.574 115.572 219.4 115.939C219.304 116.125 219.202 116.305 219.118 116.492C219.009 116.702 218.907 116.906 218.811 117.117C218.601 117.508 218.408 117.898 218.222 118.301C217.855 119.034 217.501 119.768 217.158 120.513C217.002 120.844 216.839 121.174 216.695 121.505C216.377 122.166 216.07 122.839 215.776 123.513C215.739 123.573 215.703 123.645 215.679 123.711C215.559 123.969 215.445 124.222 215.337 124.48C215.265 124.625 215.204 124.775 215.138 124.919C213.852 127.816 212.656 130.75 211.532 133.725C210.967 135.192 210.432 136.671 209.915 138.167C209.584 139.099 209.266 140.025 208.959 140.968C208.665 141.864 208.37 142.754 208.106 143.649C208.081 143.661 208.081 143.673 208.081 143.697C207.997 143.932 207.937 144.148 207.859 144.395C207.787 144.617 207.715 144.858 207.649 145.092C207.528 145.471 207.402 145.861 207.306 146.24C207.246 146.396 207.198 146.571 207.15 146.739C207.138 146.763 207.126 146.799 207.126 146.835C207.09 146.919 207.066 147.004 207.042 147.106C206.921 147.52 206.795 147.935 206.675 148.368C206.428 149.21 206.188 150.081 205.966 150.935C205.893 151.181 205.833 151.422 205.767 151.668C205.425 152.918 205.106 154.175 204.811 155.437C204.565 156.417 204.349 157.378 204.126 158.358C203.982 158.995 203.844 159.645 203.711 160.276C203.651 160.534 203.591 160.787 203.543 161.045C203.495 161.256 203.459 161.46 203.423 161.658C203.363 161.941 203.303 162.211 203.255 162.488C203.243 162.548 203.231 162.596 203.219 162.656C203.122 163.167 203.008 163.684 202.912 164.207C202.888 164.363 202.852 164.538 202.828 164.706C202.744 165.133 202.66 165.571 202.581 166.028C202.545 166.239 202.509 166.443 202.473 166.665C202.461 166.69 202.461 166.714 202.449 166.738C202.449 166.774 202.449 166.798 202.437 166.834C202.215 168.03 202.022 169.244 201.836 170.452V170.525L201.8 170.711C201.776 170.843 201.752 170.981 201.74 171.114V171.162C201.704 171.306 201.68 171.456 201.668 171.6C201.656 171.613 201.656 171.625 201.656 171.649C201.608 172.003 201.548 172.37 201.499 172.737C201.475 172.905 201.451 173.079 201.427 173.26C201.319 174.017 201.217 174.786 201.133 175.556C201.097 175.712 201.085 175.874 201.073 176.043C201.049 176.151 201.037 176.265 201.025 176.385C201.013 176.421 201.013 176.469 201.013 176.517C200.976 176.776 200.94 177.04 200.916 177.311C200.832 178.032 200.748 178.754 200.67 179.475V179.523C200.646 179.691 200.634 179.878 200.61 180.064C200.586 180.274 200.562 180.491 200.55 180.713C200.49 181.278 200.441 181.849 200.393 182.426L200.357 182.865C200.309 183.442 200.261 184.013 200.213 184.59C200.129 185.69 200.057 186.802 199.991 187.914C199.967 188.305 199.943 188.696 199.931 189.098C199.919 189.285 199.907 189.465 199.907 189.663C199.895 189.808 199.882 189.97 199.882 190.114C199.87 190.174 199.87 190.235 199.87 190.301C199.846 190.8 199.822 191.305 199.81 191.791C199.786 192.489 199.762 193.186 199.75 193.883C199.738 194.13 199.726 194.358 199.726 194.605C199.714 194.773 199.714 194.935 199.714 195.103C199.702 195.482 199.702 195.861 199.702 196.24C199.678 197.069 199.678 197.917 199.678 198.758V210.756C199.678 219.111 199.113 227.34 198.025 235.395C196.793 244.652 194.857 253.693 192.279 262.457C190.704 267.824 188.888 273.096 186.851 278.259C186.081 280.189 185.288 282.125 184.452 284.018C180.515 293.083 175.857 301.75 170.549 309.979C164.995 318.599 158.749 326.72 151.861 334.252C151.692 334.438 151.53 334.619 151.362 334.805C150.454 335.785 149.54 336.764 148.621 337.726C148.098 338.279 147.557 338.826 147.004 339.379C145.645 340.774 144.239 342.156 142.82 343.515C132.866 353.018 121.836 361.404 109.934 368.496C109.423 368.803 108.894 369.11 108.371 369.404C104.656 371.568 100.851 373.612 96.9743 375.505C87.5972 380.116 77.7632 383.945 67.5626 386.902C51.2728 391.645 34.0573 394.193 16.2347 394.193H16.0664C50.8821 411.842 90.2601 421.784 131.964 421.784C133.395 421.784 134.814 421.772 136.244 421.748C136.388 421.748 136.539 421.748 136.683 421.736C137.639 421.724 138.6 421.7 139.568 421.664C139.737 421.664 139.923 421.664 140.091 421.652C140.374 421.652 140.644 421.64 140.909 421.628C141.179 421.628 141.45 421.604 141.726 421.592C141.882 421.592 142.057 421.592 142.213 421.58C142.886 421.556 143.56 421.531 144.233 421.495C144.906 421.459 145.591 421.435 146.264 421.387C146.511 421.375 146.763 421.363 147.01 421.351C147.316 421.339 147.635 421.315 147.942 421.291C148.735 421.243 149.528 421.195 150.328 421.135C151.205 421.075 152.089 421.015 152.979 420.936C153.856 420.864 154.74 420.792 155.606 420.702C157.367 420.558 159.128 420.371 160.865 420.179C161.076 420.155 161.28 420.131 161.49 420.107C162.079 420.047 162.674 419.975 163.264 419.896C163.36 419.884 163.45 419.872 163.546 419.86C164.466 419.752 165.391 419.626 166.311 419.506C166.407 419.494 166.497 419.482 166.594 419.47C167.892 419.301 169.196 419.115 170.495 418.917C170.813 418.869 171.12 418.82 171.438 418.772C172.575 418.604 173.723 418.418 174.865 418.219C174.925 418.207 174.997 418.195 175.075 418.183C176.434 417.949 177.792 417.72 179.133 417.462C180.527 417.204 181.91 416.939 183.292 416.657C184.488 416.422 185.679 416.17 186.863 415.911C187.241 415.827 187.632 415.743 188.023 415.653C189.063 415.418 190.103 415.19 191.13 414.943C192.086 414.709 193.024 414.493 193.968 414.246C194.785 414.048 195.609 413.843 196.426 413.633C197.514 413.35 198.602 413.056 199.678 412.767C202.113 412.106 204.547 411.397 206.957 410.664C207.619 410.465 208.292 410.261 208.953 410.05C209.957 409.732 210.949 409.413 211.935 409.083C213.119 408.704 214.297 408.313 215.469 407.911C216.767 407.472 218.06 407.003 219.346 406.54C220.644 406.077 221.925 405.596 223.199 405.121C224.473 404.635 225.742 404.13 227.004 403.631C229.144 402.777 231.272 401.894 233.388 400.992C234.037 400.709 234.686 400.427 235.329 400.15C236.051 399.832 236.772 399.513 237.493 399.183C238.437 398.756 239.387 398.317 240.33 397.872C241.382 397.385 242.434 396.88 243.486 396.381C245.758 395.281 248.012 394.157 250.249 392.979C251.126 392.528 252.01 392.072 252.875 391.597C255.238 390.334 257.57 389.042 259.884 387.708C259.908 387.696 259.944 387.672 259.968 387.66C260.016 387.635 260.052 387.611 260.101 387.587C260.894 387.137 261.687 386.668 262.475 386.193C263.292 385.718 264.104 385.225 264.921 384.738C264.885 384.798 264.837 384.858 264.801 384.937C278.103 377.549 291.923 371.009 306.199 365.347H306.223V365.359H306.235C310.677 363.598 315.125 361.932 319.651 360.346C351.426 349.183 385.249 342.367 420.408 340.593H420.42C426.509 340.287 432.634 340.131 438.801 340.131C439.973 340.131 441.152 340.131 442.324 340.155C442.811 340.155 443.316 340.167 443.79 340.167H444.109C444.295 340.167 444.488 340.179 444.674 340.179C445.702 340.191 446.718 340.203 447.734 340.239C447.77 340.251 447.818 340.251 447.854 340.251C450.505 340.299 453.15 340.395 455.788 340.533H455.945C456.738 340.545 457.52 340.545 458.319 340.545C459.299 340.545 460.291 340.533 461.264 340.521C462.893 340.497 464.504 340.449 466.133 340.377C466.686 340.365 467.221 340.341 467.774 340.305C468.201 340.293 468.64 340.269 469.073 340.233C469.674 340.209 470.269 340.173 470.87 340.125C471.687 340.077 472.523 340.016 473.34 339.938C474.182 339.878 475.018 339.806 475.847 339.716C476.496 339.656 477.145 339.596 477.789 339.518C478.191 339.481 478.594 339.433 478.997 339.385C479.862 339.289 480.722 339.187 481.576 339.079C482.676 338.946 483.764 338.796 484.852 338.64C485.561 338.532 486.27 338.43 486.967 338.321C487.064 338.309 487.166 338.297 487.262 338.273C488.182 338.129 489.095 337.979 490.003 337.822C491.764 337.516 493.501 337.185 495.239 336.831C495.96 336.686 496.669 336.536 497.378 336.38H497.39C497.463 336.368 497.547 336.344 497.625 336.332C497.661 336.32 497.709 336.32 497.745 336.308C498.773 336.073 499.789 335.845 500.805 335.61C501.869 335.352 502.921 335.099 503.972 334.829C505.012 334.558 506.04 334.288 507.068 333.999C522.745 329.696 537.58 323.36 551.279 315.299C551.525 314.921 551.766 314.554 552 314.187V314.175C542.13 316.67 531.942 318.371 521.501 319.188L521.458 319.206Z" fill="url(#paint2_linear_862_4315)"/>
<path d="M374.916 263.845C355.922 267.247 337.444 272.146 319.615 278.41C315.089 279.997 310.641 281.662 306.199 283.423H306.187C291.893 289.097 278.061 295.661 264.729 303.049V303.061C260.581 305.345 256.476 307.731 252.424 310.19C253.38 309.589 254.33 309.018 255.298 308.441C256.8 307.545 258.321 306.655 259.848 305.772C257.534 307.106 255.202 308.411 252.839 309.661C251.974 310.136 251.09 310.593 250.212 311.043C246.029 313.231 241.773 315.287 237.457 317.241C236.736 317.571 236.014 317.89 235.293 318.208C234.644 318.491 233.995 318.774 233.352 319.05C231.236 319.958 229.108 320.835 226.968 321.689C225.706 322.2 224.437 322.693 223.163 323.18C221.889 323.654 220.608 324.135 219.31 324.598C218.024 325.061 216.731 325.53 215.433 325.969C214.261 326.371 213.082 326.762 211.898 327.141C210.907 327.471 209.915 327.79 208.917 328.109C208.256 328.319 207.582 328.523 206.921 328.722C204.511 329.455 202.076 330.164 199.642 330.826C188.401 333.897 176.86 336.205 165.061 337.72C159.092 338.502 153.063 339.067 146.974 339.409C147.527 338.856 148.062 338.309 148.591 337.756C149.51 336.788 150.424 335.815 151.332 334.835C151.5 334.649 151.662 334.468 151.831 334.282C158.713 326.75 164.965 318.629 170.519 310.009C175.826 301.78 180.485 293.107 184.422 284.048C189.555 282.984 194.635 281.776 199.648 280.405C202.082 279.744 204.517 279.035 206.927 278.302C207.588 278.103 208.262 277.899 208.923 277.688C209.927 277.37 210.919 277.051 211.904 276.721C213.089 276.342 214.267 275.951 215.439 275.549C216.737 275.11 218.03 274.641 219.316 274.178C220.614 273.715 221.895 273.234 223.169 272.759C224.443 272.273 225.712 271.78 226.974 271.269C229.114 270.415 231.242 269.532 233.358 268.63C234.007 268.347 234.656 268.065 235.299 267.788C236.02 267.47 236.742 267.151 237.463 266.821C241.779 264.861 246.035 262.811 250.218 260.623C251.096 260.172 251.98 259.716 252.845 259.241C255.208 257.99 257.54 256.686 259.854 255.352C258.327 256.229 256.806 257.125 255.304 258.02C254.336 258.597 253.386 259.169 252.43 259.77C256.476 257.311 260.587 254.925 264.735 252.641V252.629C278.067 245.241 291.899 238.677 306.193 233.003H306.205C310.647 231.241 315.095 229.576 319.621 227.99C327.544 225.2 335.592 222.694 343.761 220.458C351.077 234.644 360.195 247.742 370.811 259.469C371.731 260.485 372.656 261.489 373.6 262.475V262.499H373.612V262.523C373.612 262.523 373.576 262.535 373.564 262.559C373.588 262.547 373.612 262.535 373.636 262.535H373.66C374.075 262.973 374.49 263.412 374.922 263.845H374.916Z" fill="url(#paint3_linear_862_4315)"/>
<defs>
<linearGradient id="paint0_linear_862_4315" x1="283.17" y1="351.924" x2="302.82" y2="475.997" gradientUnits="userSpaceOnUse">
<stop stop-color="#2A3814"/>
<stop offset="1" stop-color="#5B782C"/>
</linearGradient>
<linearGradient id="paint1_linear_862_4315" x1="338.177" y1="206.711" x2="447.15" y2="162.68" gradientUnits="userSpaceOnUse">
<stop offset="0.1" stop-color="#2F9946"/>
<stop offset="1" stop-color="#4DFF73"/>
</linearGradient>
<linearGradient id="paint2_linear_862_4315" x1="474.771" y1="105.299" x2="119.017" y2="529.272" gradientUnits="userSpaceOnUse">
<stop stop-color="#B8FF4D"/>
<stop offset="1" stop-color="#618729"/>
</linearGradient>
<linearGradient id="paint3_linear_862_4315" x1="139.334" y1="306.313" x2="372.302" y2="252.526" gradientUnits="userSpaceOnUse">
<stop stop-color="#573232"/>
<stop offset="1" stop-color="#874D4D"/>
</linearGradient>
</defs>
</svg>
